HIERARCHY
ROOT joint_0
{
	OFFSET -212.520721 120.562408 434.227997
	CHANNELS 6 Xposition Yposition Zposition Zrotation Yrotation Xrotation 
	JOINT joint_1
	{
		OFFSET 0.076353 -27.778170 -6.587521
		CHANNELS 3 Zrotation Yrotation Xrotation
		JOINT joint_2
		{
			OFFSET 0.103596 1.855919 10.547029
			CHANNELS 3 Zrotation Yrotation Xrotation
			JOINT joint_3
			{
				OFFSET 43.450470 -0.000023 -0.000008
				CHANNELS 3 Zrotation Yrotation Xrotation
				JOINT joint_4
				{
					OFFSET 42.284447 0.000006 -0.000009
					CHANNELS 3 Zrotation Yrotation Xrotation
					JOINT joint_5
					{
						OFFSET 17.324776 -0.000003 -0.000002
						CHANNELS 3 Zrotation Yrotation Xrotation
						End Site
						{
							OFFSET 0.000000 0.000000 0.000000
						}
					}
				}
			}
		}
		JOINT joint_6
		{
			OFFSET 0.103602 1.855836 -10.547020
			CHANNELS 3 Zrotation Yrotation Xrotation
			JOINT joint_7
			{
				OFFSET 43.447586 -0.000025 0.000009
				CHANNELS 3 Zrotation Yrotation Xrotation
				JOINT joint_8
				{
					OFFSET 42.282387 0.000008 0.000009
					CHANNELS 3 Zrotation Yrotation Xrotation
					JOINT joint_9
					{
						OFFSET 17.327209 -0.000002 0.000001
						CHANNELS 3 Zrotation Yrotation Xrotation
						End Site
						{
							OFFSET 0.000000 0.000000 0.000000
						}
					}
				}
			}
		}
		JOINT joint_10
		{
			OFFSET 6.903440 -2.607053 0.000000
			CHANNELS 3 Zrotation Yrotation Xrotation
			JOINT joint_11
			{
				OFFSET 12.581183 0.000006 0.000000
				CHANNELS 3 Zrotation Yrotation Xrotation
				JOINT joint_12
				{
					OFFSET 12.325707 -0.000003 0.000001
					CHANNELS 3 Zrotation Yrotation Xrotation
					JOINT joint_13
					{
						OFFSET 25.812309 -0.000002 0.000001
						CHANNELS 3 Zrotation Yrotation Xrotation
						JOINT joint_14
						{
							OFFSET 11.740516 0.000004 -0.000000
							CHANNELS 3 Zrotation Yrotation Xrotation
							End Site
							{
								OFFSET 0.000000 0.000000 0.000000
							}
						}
					}
					JOINT joint_15
					{
						OFFSET 19.731152 -1.480304 5.999896
						CHANNELS 3 Zrotation Yrotation Xrotation
						JOINT joint_16
						{
							OFFSET 11.306273 -0.000013 -0.000006
							CHANNELS 3 Zrotation Yrotation Xrotation
							JOINT joint_17
							{
								OFFSET 32.950130 0.000012 0.000012
								CHANNELS 3 Zrotation Yrotation Xrotation
								JOINT joint_18
								{
									OFFSET 25.223192 0.000071 -0.000211
									CHANNELS 3 Zrotation Yrotation Xrotation
									End Site
									{
										OFFSET 0.000000 0.000000 0.000000
									}
								}
							}
						}
					}
					JOINT joint_19
					{
						OFFSET 19.732466 -1.480287 -5.999909
						CHANNELS 3 Zrotation Yrotation Xrotation
						JOINT joint_20
						{
							OFFSET 11.303796 -0.000013 0.000005
							CHANNELS 3 Zrotation Yrotation Xrotation
							JOINT joint_21
							{
								OFFSET 32.946613 0.000014 -0.000015
								CHANNELS 3 Zrotation Yrotation Xrotation
								JOINT joint_22
								{
									OFFSET 25.225174 0.000092 0.000238
									CHANNELS 3 Zrotation Yrotation Xrotation
									End Site
									{
										OFFSET 0.000000 0.000000 0.000000
									}
								}
							}
						}
					}
				}
			}
		}
	}
}
MOTION
Frames: 12
Frame Time: 0.016667
-760.361694 153.236465 812.847351 180.000000 -53.131599 180.000000 89.636909 -14.484885 86.547913 168.163208 -10.553597 159.016647 -7.150534 4.457039 -59.669704 -4.654437 -0.646175 87.917702 0.000011 0.003100 21.484062 -170.187897 0.561301 144.317657 1.720202 -1.890917 -59.698727 9.563877 3.015865 77.683998 -0.000009 -0.003106 21.483139 0.273264 0.276303 8.068258 0.887904 2.353359 6.784267 0.277446 0.503917 4.285903 -3.188411 0.349195 5.095821 0.777974 2.694815 -8.058120 1.793910 -81.432457 176.611664 26.631586 43.982464 -2.386480 1.473473 -7.659356 -51.272770 28.306129 -10.568608 2.107356 -1.587957 74.430046 176.680786 -7.045994 -41.154156 -19.737707 -2.644832 13.238381 -64.421135 -25.429272 10.911829 2.912645 
-761.863525 153.413162 812.235657 180.000000 -52.752197 180.000000 89.478882 -14.372838 86.862740 168.691177 -10.574290 157.741898 -7.140325 4.684949 -58.897305 -4.401738 -0.915908 87.339249 0.000011 0.003100 21.483635 -170.528183 0.711903 144.254929 1.132427 -1.931584 -59.345734 10.292719 3.205619 77.761040 -0.000009 -0.003105 21.484270 0.137731 0.306200 7.987206 0.945920 2.296058 6.905419 0.485221 0.336740 4.366611 -4.376795 0.062651 5.283260 1.701972 3.501179 -7.297561 4.733298 -81.495453 173.579330 26.971329 44.353703 -1.918651 1.392688 -7.814313 -50.975628 28.146032 -10.330585 1.893575 -0.445209 74.330429 177.771790 -8.462390 -41.145180 -18.227049 -3.026055 13.000093 -65.760269 -26.196707 10.976912 3.053239 
-763.440308 153.573288 811.549683 180.000000 -52.332253 180.000000 89.411865 -14.309506 87.164093 168.626373 -10.686181 157.099213 -7.228332 4.782159 -57.764900 -4.532166 -1.040004 86.796936 0.000011 0.003100 21.482290 -170.530350 1.066427 144.040604 1.104257 -2.030645 -59.146664 10.415833 3.242205 78.048332 -0.000009 -0.003105 21.485235 0.098541 0.344218 7.970309 0.943084 2.294754 6.968171 0.486265 0.326023 4.315369 -5.206466 -0.287884 5.018451 2.064973 3.607671 -6.854468 6.805363 -81.548149 171.453690 27.045191 44.354431 -1.983049 1.388928 -7.890401 -50.857521 27.488297 -10.559743 2.010163 -0.092578 74.282677 178.095001 -9.095727 -41.346943 -17.303211 -3.164313 12.898372 -66.209534 -26.288944 10.780619 3.088199 
-765.004517 153.732895 810.810364 180.000000 -51.855396 180.000000 89.410294 -14.210404 87.404167 167.824417 -10.424841 157.185928 -7.529344 4.905794 -57.319267 -4.997313 -1.156405 86.221901 0.000011 0.003100 21.480362 -170.618698 1.339961 143.643845 1.503355 -2.109973 -59.103981 10.143171 3.278042 78.538139 -0.000009 -0.003104 21.485844 0.147226 0.416105 7.996528 0.960179 2.353007 6.921269 0.396070 0.477897 4.216521 -5.540558 -0.660709 4.690641 2.046402 3.212054 -6.668317 6.733482 -81.619545 171.496384 27.028440 44.412880 -2.150954 1.390640 -7.950411 -50.561398 26.607971 -11.164977 2.411870 -0.283901 74.340897 177.897095 -9.088871 -41.743477 -16.607738 -3.172193 12.877645 -66.116386 -26.183950 10.553299 3.013006 
-766.533203 153.892868 810.042847 180.000000 -51.379372 180.000000 89.265427 -14.270313 87.710121 167.002243 -10.231107 157.363525 -7.690352 4.978697 -56.460724 -5.240023 -1.369219 85.666077 0.000011 0.003100 21.478949 -170.686523 1.536962 143.517349 1.770367 -2.159879 -58.387432 10.003344 3.295356 79.045158 -0.000009 -0.003104 21.486057 0.187085 0.460665 8.039762 1.004437 2.402838 6.934546 0.323645 0.585598 4.137211 -5.702101 -1.097556 4.567658 2.103089 3.050155 -6.657479 6.071614 -81.571861 172.150696 26.779119 44.381355 -2.588224 1.413630 -8.056306 -50.388275 25.772537 -11.881644 2.686432 -0.320466 74.359337 177.869431 -8.949939 -42.349319 -16.207945 -3.294290 12.927932 -66.314369 -26.058601 10.388811 3.068139 
-768.062134 154.042938 809.231750 180.000000 -50.913868 180.000000 89.052994 -14.388293 88.165474 166.291870 -10.153236 157.759537 -7.655556 4.988306 -55.487251 -5.202496 -1.497607 85.482780 0.000011 0.003100 21.478073 -170.725449 1.657604 143.473526 1.862479 -2.236618 -57.466457 10.078333 3.296788 79.217445 -0.000010 -0.003104 21.486309 0.195423 0.492158 8.049267 0.954805 2.427512 6.938434 0.276436 0.664921 4.114087 -5.908529 -1.473201 4.567063 2.233266 2.969240 -6.823186 5.911606 -81.439590 172.280655 26.689070 44.179501 -2.905058 1.428809 -8.210015 -50.241543 25.110384 -12.403936 2.919518 -0.216529 74.327744 177.978043 -9.028011 -42.925949 -15.882583 -3.484732 12.929215 -66.794182 -25.961927 10.324806 3.229125 
-769.617615 154.183929 808.362976 180.000000 -50.450035 180.000000 88.891739 -14.377216 88.589622 165.652313 -10.196212 158.192123 -7.636003 4.949184 -54.692196 -5.166991 -1.496455 85.646988 0.000011 0.003099 21.477537 -170.734924 1.720033 143.296295 1.879968 -2.276807 -56.537476 10.241864 3.375347 79.131279 -0.000010 -0.003104 21.486547 0.202526 0.522870 8.024098 0.873002 2.473182 6.920229 0.263813 0.750372 4.169522 -6.097906 -1.904594 4.548100 2.295317 2.815838 -7.183538 5.444870 -81.311447 172.725510 26.908152 43.711540 -2.899724 1.396277 -8.389547 -50.096157 24.788843 -12.759463 3.143228 -0.136452 74.162453 178.045837 -9.059753 -43.148731 -15.809554 -3.778092 12.927040 -67.664032 -25.824198 10.195763 3.459512 
-771.186890 154.313950 807.439209 180.000000 -49.993507 180.000000 88.834793 -14.253373 89.026413 165.346954 -10.216966 158.267807 -7.599690 4.884097 -53.789570 -5.108293 -1.409515 85.841148 0.000012 0.003099 21.477072 -170.767014 1.659935 143.040253 1.949055 -2.265137 -55.817383 10.388013 3.445110 79.007027 -0.000010 -0.003104 21.486826 0.211823 0.560233 7.982575 0.763198 2.536677 6.857952 0.244881 0.830404 4.235748 -6.352567 -2.353068 4.579638 2.403657 2.598026 -7.530813 4.685180 -81.209778 173.466171 27.598022 43.210613 -2.473046 1.322041 -8.496160 -49.741875 24.504881 -12.862615 3.355912 0.053151 73.960052 178.203690 -9.265368 -43.129890 -15.540195 -3.981790 12.879762 -68.642899 -25.524685 10.029688 3.698246 
-772.742798 154.436508 806.481750 180.000000 -49.547424 180.000000 88.811066 -14.091342 89.426254 165.307007 -10.270782 158.115707 -7.352277 4.769221 -52.735416 -5.038782 -1.255863 85.883492 0.000012 0.003099 21.476425 -170.700806 1.529223 142.805801 2.068559 -2.244387 -55.280212 10.468422 3.501384 78.925392 -0.000010 -0.003104 21.487162 0.215587 0.599146 7.933940 0.628006 2.602093 6.752477 0.207318 0.872250 4.339049 -6.654438 -2.822210 4.680477 2.513908 2.315477 -7.783213 3.927246 -81.165527 174.204590 28.556746 42.807140 -1.935436 1.212539 -8.522331 -49.102463 24.144522 -12.717359 3.595841 0.503464 73.797012 178.632645 -9.412974 -43.123569 -15.315352 -4.155169 12.804746 -69.643242 -25.137754 9.970282 3.958995 
-774.279358 154.552109 805.498108 180.000000 -49.116104 180.000000 88.789276 -13.885393 89.779037 165.425339 -10.284971 157.853027 -7.012360 4.651739 -51.733524 -5.164519 -1.132733 85.828331 0.000012 0.003098 21.475670 -170.493622 1.376262 142.524689 2.262094 -2.212852 -54.949032 10.422149 3.548429 78.826736 -0.000010 -0.003103 21.487228 0.235537 0.612279 7.925156 0.508105 2.709862 6.668125 0.200063 0.896329 4.469841 -6.842752 -3.261412 4.739063 2.729699 1.710090 -7.968336 2.874482 -81.126236 175.222031 29.384865 42.512058 -1.634309 1.116330 -8.478317 -48.454147 23.732618 -12.298130 3.864321 1.191741 73.615677 179.311996 -9.717290 -43.131424 -14.802402 -4.360349 12.690886 -70.609184 -24.941586 10.010124 4.111999 
-775.790527 154.653900 804.489319 180.000000 -48.704395 180.000000 88.763123 -13.687193 90.031296 165.368454 -10.278177 157.704239 -6.672256 4.552805 -50.771770 -5.355133 -0.964746 85.679482 0.000012 0.003098 21.475348 -170.175674 1.161159 142.177490 2.570010 -2.169143 -54.642849 10.148637 3.569468 78.645187 -0.000011 -0.003103 21.487185 0.274788 0.600121 7.963909 0.387480 2.840386 6.579765 0.211972 0.917224 4.585256 -7.013358 -3.673131 4.709410 3.101969 0.759869 -8.148004 1.708641 -81.016258 176.342743 29.762476 42.340656 -1.625358 1.023840 -8.390804 -47.925674 23.327188 -11.652017 4.168084 1.855093 73.399940 179.985718 -9.998919 -43.241581 -14.525465 -4.500196 12.618799 -71.244896 -24.835066 10.029134 4.155234 
-777.276917 154.740402 803.476318 180.000000 -48.329731 180.000000 88.805077 -13.492807 90.179085 164.945221 -10.160061 157.858170 -6.428858 4.492556 -50.184803 -5.617211 -0.796642 85.615471 0.000012 0.003098 21.475201 -169.788132 1.032630 141.825836 3.020266 -2.147237 -54.410191 9.619746 3.531151 78.338615 -0.000011 -0.003103 21.487171 0.327436 0.560841 8.020260 0.246738 2.984994 6.503747 0.186027 0.956423 4.693294 -7.053457 -3.920455 4.534010 3.313691 -0.463997 -8.335606 0.468480 -80.839378 177.564545 29.700075 42.390606 -2.126245 0.978701 -8.235698 -47.724464 23.055853 -10.931090 4.448647 2.292247 73.202286 -179.533264 -9.960804 -43.776134 -14.611711 -4.543234 12.626008 -71.319679 -24.674765 10.063439 4.093951 
